<mxfile host="Electron" agent="Mozilla/5.0 (X11; Linux x86_64) AppleWebKit/537.36 (KHTML, like Gecko) draw.io/26.0.9 Chrome/128.0.6613.186 Electron/32.2.5 Safari/537.36" version="26.0.9">
  <diagram name="Page-1" id="2YBvvXClWsGukQMizWep">
    <mxGraphModel dx="1364" dy="843" grid="1" gridSize="10" guides="1" tooltips="1" connect="1" arrows="1" fold="1" page="1" pageScale="1" pageWidth="827" pageHeight="1169" math="0" shadow="0">
      <root>
        <mxCell id="0" />
        <mxCell id="1" parent="0" />
        <mxCell id="Aw8IIlcQ0DjvGx2Mt9a--1" value="Github&lt;br&gt;ATMT-maintainer" style="rounded=1;whiteSpace=wrap;html=1;" parent="1" vertex="1">
          <mxGeometry x="30" y="70" width="210" height="60" as="geometry" />
        </mxCell>
        <mxCell id="Aw8IIlcQ0DjvGx2Mt9a--22" style="edgeStyle=orthogonalEdgeStyle;rounded=0;orthogonalLoop=1;jettySize=auto;html=1;endArrow=none;startFill=0;" parent="1" source="Aw8IIlcQ0DjvGx2Mt9a--2" edge="1">
          <mxGeometry relative="1" as="geometry">
            <mxPoint x="130" y="750" as="targetPoint" />
            <Array as="points">
              <mxPoint x="130" y="720" />
            </Array>
          </mxGeometry>
        </mxCell>
        <mxCell id="Aw8IIlcQ0DjvGx2Mt9a--2" value="upstream/main" style="rounded=0;whiteSpace=wrap;html=1;" parent="1" vertex="1">
          <mxGeometry x="70" y="240" width="120" height="30" as="geometry" />
        </mxCell>
        <mxCell id="Aw8IIlcQ0DjvGx2Mt9a--4" value="Github&lt;div&gt;ATMT-contributor&lt;/div&gt;" style="rounded=1;whiteSpace=wrap;html=1;" parent="1" vertex="1">
          <mxGeometry x="490" y="70" width="210" height="60" as="geometry" />
        </mxCell>
        <mxCell id="Aw8IIlcQ0DjvGx2Mt9a--7" style="edgeStyle=orthogonalEdgeStyle;rounded=0;orthogonalLoop=1;jettySize=auto;html=1;entryX=0;entryY=0.5;entryDx=0;entryDy=0;" parent="1" source="Aw8IIlcQ0DjvGx2Mt9a--5" target="Aw8IIlcQ0DjvGx2Mt9a--6" edge="1">
          <mxGeometry relative="1" as="geometry" />
        </mxCell>
        <mxCell id="Aw8IIlcQ0DjvGx2Mt9a--5" value="ATMT-repo" style="whiteSpace=wrap;html=1;" parent="1" vertex="1">
          <mxGeometry x="30" y="170" width="200" height="30" as="geometry" />
        </mxCell>
        <mxCell id="Aw8IIlcQ0DjvGx2Mt9a--45" style="edgeStyle=orthogonalEdgeStyle;rounded=0;orthogonalLoop=1;jettySize=auto;html=1;entryX=0;entryY=0.5;entryDx=0;entryDy=0;" parent="1" source="Aw8IIlcQ0DjvGx2Mt9a--6" target="Aw8IIlcQ0DjvGx2Mt9a--44" edge="1">
          <mxGeometry relative="1" as="geometry" />
        </mxCell>
        <mxCell id="Aw8IIlcQ0DjvGx2Mt9a--6" value="ATMT-repo-fork" style="whiteSpace=wrap;html=1;" parent="1" vertex="1">
          <mxGeometry x="490" y="170" width="200" height="30" as="geometry" />
        </mxCell>
        <mxCell id="Aw8IIlcQ0DjvGx2Mt9a--8" value="Fork" style="text;html=1;align=center;verticalAlign=middle;resizable=0;points=[];autosize=1;strokeColor=none;fillColor=none;" parent="1" vertex="1">
          <mxGeometry x="340" y="158" width="50" height="30" as="geometry" />
        </mxCell>
        <mxCell id="Aw8IIlcQ0DjvGx2Mt9a--9" value="main" style="rounded=0;whiteSpace=wrap;html=1;" parent="1" vertex="1">
          <mxGeometry x="805" y="240" width="80" height="30" as="geometry" />
        </mxCell>
        <mxCell id="Aw8IIlcQ0DjvGx2Mt9a--27" style="edgeStyle=orthogonalEdgeStyle;rounded=0;orthogonalLoop=1;jettySize=auto;html=1;entryX=1;entryY=0.5;entryDx=0;entryDy=0;exitX=0.5;exitY=1;exitDx=0;exitDy=0;" parent="1" source="Aw8IIlcQ0DjvGx2Mt9a--11" target="Aw8IIlcQ0DjvGx2Mt9a--20" edge="1">
          <mxGeometry relative="1" as="geometry">
            <mxPoint x="960" y="582" as="sourcePoint" />
            <Array as="points">
              <mxPoint x="960" y="617" />
            </Array>
          </mxGeometry>
        </mxCell>
        <mxCell id="Aw8IIlcQ0DjvGx2Mt9a--11" value="newfeature" style="rounded=0;whiteSpace=wrap;html=1;" parent="1" vertex="1">
          <mxGeometry x="920" y="480" width="80" height="30" as="geometry" />
        </mxCell>
        <mxCell id="Aw8IIlcQ0DjvGx2Mt9a--13" value="&lt;div&gt;Local machine&lt;br&gt;ATMT-contributor&lt;/div&gt;" style="rounded=1;whiteSpace=wrap;html=1;" parent="1" vertex="1">
          <mxGeometry x="800" y="70" width="210" height="60" as="geometry" />
        </mxCell>
        <mxCell id="Aw8IIlcQ0DjvGx2Mt9a--23" style="edgeStyle=orthogonalEdgeStyle;rounded=0;orthogonalLoop=1;jettySize=auto;html=1;endArrow=none;startFill=0;" parent="1" edge="1">
          <mxGeometry relative="1" as="geometry">
            <mxPoint x="850" y="550" as="targetPoint" />
            <mxPoint x="850.0000000000005" y="270" as="sourcePoint" />
          </mxGeometry>
        </mxCell>
        <mxCell id="Aw8IIlcQ0DjvGx2Mt9a--16" value="Clone" style="text;html=1;align=center;verticalAlign=middle;resizable=0;points=[];autosize=1;strokeColor=none;fillColor=none;" parent="1" vertex="1">
          <mxGeometry x="690" y="158" width="50" height="30" as="geometry" />
        </mxCell>
        <mxCell id="Aw8IIlcQ0DjvGx2Mt9a--17" value="&lt;p dir=&quot;ltr&quot; style=&quot;margin-top: 0pt; margin-bottom: 0pt; line-height: 100%;&quot; id=&quot;docs-internal-guid-3575fb4e-7fff-6f5a-114c-815c5421b933&quot;&gt;&lt;span style=&quot;font-size: 11pt; font-family: Arial, sans-serif; color: rgb(0, 0, 0); background-color: transparent; font-weight: 700; font-style: normal; font-variant: normal; text-decoration: none; vertical-align: baseline; white-space: pre-wrap; line-height: 100%;&quot;&gt;Before Each Feature:&lt;/span&gt;&lt;/p&gt;&lt;span style=&quot;font-size: 11pt; font-family: Arial, sans-serif; color: rgb(0, 0, 0); background-color: transparent; font-weight: 400; font-style: normal; font-variant: normal; text-decoration: none; vertical-align: baseline; white-space: pre-wrap; line-height: 100%;&quot;&gt;Update from upstream main:&lt;/span&gt;&lt;span style=&quot;font-size: 11pt; font-family: Arial, sans-serif; color: rgb(0, 0, 0); background-color: transparent; font-weight: 400; font-style: normal; font-variant: normal; text-decoration: none; vertical-align: baseline; white-space: pre-wrap;&quot;&gt;&lt;br&gt;&lt;/span&gt;&lt;span style=&quot;font-size: 11pt; font-family: Courier, monospace; color: rgb(0, 0, 0); background-color: transparent; font-weight: 400; font-style: normal; font-variant: normal; text-decoration: none; vertical-align: baseline; white-space: pre-wrap; line-height: 100%;&quot;&gt;git fetch upstream&lt;/span&gt;&lt;span style=&quot;font-size: 11pt; font-family: Courier, monospace; color: rgb(0, 0, 0); background-color: transparent; font-weight: 400; font-style: normal; font-variant: normal; text-decoration: none; vertical-align: baseline; white-space: pre-wrap;&quot;&gt;&lt;br&gt;&lt;/span&gt;&lt;span style=&quot;font-size: 11pt; font-family: Courier, monospace; color: rgb(0, 0, 0); background-color: transparent; font-weight: 400; font-style: normal; font-variant: normal; text-decoration: none; vertical-align: baseline; white-space: pre-wrap; line-height: 100%;&quot;&gt;git checkout main&lt;/span&gt;&lt;span style=&quot;font-size: 11pt; font-family: Courier, monospace; color: rgb(0, 0, 0); background-color: transparent; font-weight: 400; font-style: normal; font-variant: normal; text-decoration: none; vertical-align: baseline; white-space: pre-wrap;&quot;&gt;&lt;br&gt;&lt;/span&gt;&lt;span style=&quot;font-size: 11pt; font-family: Courier, monospace; color: rgb(0, 0, 0); background-color: transparent; font-weight: 400; font-style: normal; font-variant: normal; text-decoration: none; vertical-align: baseline; white-space: pre-wrap; line-height: 100%;&quot;&gt;git merge upstream/main&lt;/span&gt;&lt;span style=&quot;font-size: 11pt; font-family: Courier, monospace; color: rgb(0, 0, 0); background-color: transparent; font-weight: 400; font-style: normal; font-variant: normal; text-decoration: none; vertical-align: baseline; white-space: pre-wrap;&quot;&gt;&lt;br&gt;&lt;/span&gt;" style="text;whiteSpace=wrap;html=1;" parent="1" vertex="1">
          <mxGeometry x="880" y="300" width="260" height="100" as="geometry" />
        </mxCell>
        <mxCell id="Aw8IIlcQ0DjvGx2Mt9a--18" value="&lt;p dir=&quot;ltr&quot; style=&quot;line-height:1.2;margin-top:0pt;margin-bottom:0pt;&quot; id=&quot;docs-internal-guid-43530725-7fff-98ad-7d74-aa13c522f13e&quot;&gt;&lt;span style=&quot;font-size: 11pt; font-family: Arial, sans-serif; color: rgb(0, 0, 0); background-color: transparent; font-weight: 700; font-style: normal; font-variant: normal; text-decoration: none; vertical-align: baseline; white-space: pre-wrap;&quot;&gt;Feature Development:&lt;/span&gt;&lt;/p&gt;&lt;ol style=&quot;margin-top:0;margin-bottom:0;padding-inline-start:48px;&quot;&gt;&lt;li dir=&quot;ltr&quot; style=&quot;list-style-type: decimal; font-size: 11pt; font-family: Arial, sans-serif; color: rgb(0, 0, 0); background-color: transparent; font-weight: 400; font-style: normal; font-variant: normal; text-decoration: none; vertical-align: baseline; white-space: pre; margin-left: -6pt;&quot; aria-level=&quot;1&quot;&gt;&lt;p dir=&quot;ltr&quot; style=&quot;line-height:1.2;margin-top:0pt;margin-bottom:0pt;&quot; role=&quot;presentation&quot;&gt;&lt;span style=&quot;font-size: 11pt; font-family: Arial, sans-serif; color: rgb(0, 0, 0); background-color: transparent; font-weight: 400; font-style: normal; font-variant: normal; text-decoration: none; vertical-align: baseline; white-space: pre-wrap;&quot;&gt;Create feature branch from develop: git checkout -b newfeature&lt;/span&gt;&lt;/p&gt;&lt;/li&gt;&lt;li dir=&quot;ltr&quot; style=&quot;list-style-type: decimal; font-size: 11pt; font-family: Arial, sans-serif; color: rgb(0, 0, 0); background-color: transparent; font-weight: 400; font-style: normal; font-variant: normal; text-decoration: none; vertical-align: baseline; white-space: pre; margin-left: -6pt;&quot; aria-level=&quot;1&quot;&gt;&lt;p dir=&quot;ltr&quot; style=&quot;line-height:1.2;margin-top:0pt;margin-bottom:0pt;&quot; role=&quot;presentation&quot;&gt;&lt;span style=&quot;font-size: 11pt; font-family: Arial, sans-serif; color: rgb(0, 0, 0); background-color: transparent; font-weight: 400; font-style: normal; font-variant: normal; text-decoration: none; vertical-align: baseline; white-space: pre-wrap;&quot;&gt;Code &amp;amp; commit: git add . then git commit -m &quot;Descriptive message&quot; (repeat often)&lt;/span&gt;&lt;/p&gt;&lt;/li&gt;&lt;li dir=&quot;ltr&quot; style=&quot;list-style-type: decimal; font-size: 11pt; font-family: Arial, sans-serif; color: rgb(0, 0, 0); background-color: transparent; font-weight: 400; font-style: normal; font-variant: normal; text-decoration: none; vertical-align: baseline; white-space: pre; margin-left: -6pt;&quot; aria-level=&quot;1&quot;&gt;&lt;p dir=&quot;ltr&quot; style=&quot;line-height:1.2;margin-top:0pt;margin-bottom:0pt;&quot; role=&quot;presentation&quot;&gt;&lt;span style=&quot;font-size: 11pt; font-family: Arial, sans-serif; color: rgb(0, 0, 0); background-color: transparent; font-weight: 400; font-style: normal; font-variant: normal; text-decoration: none; vertical-align: baseline; white-space: pre-wrap;&quot;&gt;Test thoroughly.&lt;/span&gt;&lt;/p&gt;&lt;/li&gt;&lt;li dir=&quot;ltr&quot; style=&quot;list-style-type: decimal; font-size: 11pt; font-family: Arial, sans-serif; color: rgb(0, 0, 0); background-color: transparent; font-weight: 400; font-style: normal; font-variant: normal; text-decoration: none; vertical-align: baseline; white-space: pre; margin-left: -6pt;&quot; aria-level=&quot;1&quot;&gt;&lt;p dir=&quot;ltr&quot; style=&quot;line-height:1.2;margin-top:0pt;margin-bottom:0pt;&quot; role=&quot;presentation&quot;&gt;&lt;span style=&quot;font-size: 11pt; font-family: Arial, sans-serif; color: rgb(0, 0, 0); background-color: transparent; font-weight: 400; font-style: normal; font-variant: normal; text-decoration: none; vertical-align: baseline; white-space: pre-wrap;&quot;&gt;Push: git push origin feature/newfeature&lt;/span&gt;&lt;/p&gt;&lt;/li&gt;&lt;/ol&gt;" style="text;whiteSpace=wrap;html=1;" parent="1" vertex="1">
          <mxGeometry x="1020" y="445" width="560" height="130" as="geometry" />
        </mxCell>
        <mxCell id="Aw8IIlcQ0DjvGx2Mt9a--19" value="&lt;p dir=&quot;ltr&quot; style=&quot;line-height:1.2;margin-top:0pt;margin-bottom:0pt;&quot; id=&quot;docs-internal-guid-612d9345-7fff-e2a6-7bd6-87716013e829&quot;&gt;&lt;span style=&quot;font-size: 11pt; font-family: Arial, sans-serif; color: rgb(0, 0, 0); background-color: transparent; font-weight: 700; font-style: normal; font-variant: normal; text-decoration: none; vertical-align: baseline; white-space: pre-wrap;&quot;&gt;      Setup (One-time):&lt;/span&gt;&lt;/p&gt;&lt;ol style=&quot;margin-top:0;margin-bottom:0;padding-inline-start:48px;&quot;&gt;&lt;li dir=&quot;ltr&quot; style=&quot;list-style-type: decimal; font-size: 11pt; font-family: Arial, sans-serif; color: rgb(0, 0, 0); background-color: transparent; font-weight: 400; font-style: normal; font-variant: normal; text-decoration: none; vertical-align: baseline; white-space: pre; margin-left: -6pt;&quot; aria-level=&quot;1&quot;&gt;&lt;p dir=&quot;ltr&quot; style=&quot;line-height:1.2;margin-top:0pt;margin-bottom:0pt;&quot; role=&quot;presentation&quot;&gt;&lt;span style=&quot;font-size: 11pt; font-family: Arial, sans-serif; color: rgb(0, 0, 0); background-color: transparent; font-weight: 400; font-style: normal; font-variant: normal; text-decoration: none; vertical-align: baseline; white-space: pre-wrap;&quot;&gt;Fork the repo.&lt;/span&gt;&lt;/p&gt;&lt;/li&gt;&lt;li dir=&quot;ltr&quot; style=&quot;list-style-type: decimal; font-size: 11pt; font-family: Arial, sans-serif; color: rgb(0, 0, 0); background-color: transparent; font-weight: 400; font-style: normal; font-variant: normal; text-decoration: none; vertical-align: baseline; white-space: pre; margin-left: -6pt;&quot; aria-level=&quot;1&quot;&gt;&lt;p dir=&quot;ltr&quot; style=&quot;line-height:1.2;margin-top:0pt;margin-bottom:0pt;&quot; role=&quot;presentation&quot;&gt;&lt;span style=&quot;font-size: 11pt; font-family: Arial, sans-serif; color: rgb(0, 0, 0); background-color: transparent; font-weight: 400; font-style: normal; font-variant: normal; text-decoration: none; vertical-align: baseline; white-space: pre-wrap;&quot;&gt;Clone your fork.&lt;/span&gt;&lt;/p&gt;&lt;/li&gt;&lt;li dir=&quot;ltr&quot; style=&quot;list-style-type: decimal; background-color: transparent; font-variant-numeric: normal; font-variant-east-asian: normal; font-variant-alternates: normal; font-variant-position: normal; margin-left: -6pt; color: rgb(0, 0, 0);&quot; aria-level=&quot;1&quot;&gt;&lt;p dir=&quot;ltr&quot; style=&quot;line-height: 1.2; margin-top: 0pt; margin-bottom: 0pt;&quot; role=&quot;presentation&quot;&gt;&lt;span style=&quot;color: rgb(0, 0, 0); font-style: normal; font-variant: normal; font-weight: 400; text-decoration: none; white-space: pre-wrap; background-color: transparent;&quot;&gt;&lt;font style=&quot;font-size: 11pt; vertical-align: baseline;&quot; face=&quot;Arial, sans-serif&quot;&gt;Add upstream: &lt;br&gt;&lt;/font&gt;&lt;font face=&quot;Courier New&quot; style=&quot;font-size: 15px;&quot;&gt;git remote add upstream &lt;/font&gt;&lt;/span&gt;&lt;span style=&quot;background-color: transparent; white-space-collapse: preserve;&quot;&gt;&lt;font face=&quot;Courier New&quot; style=&quot;font-size: 15px;&quot;&gt;https://github.com/teddycool/atmt&lt;/font&gt;&lt;/span&gt;&lt;/p&gt;&lt;/li&gt;&lt;/ol&gt;" style="text;whiteSpace=wrap;html=1;" parent="1" vertex="1">
          <mxGeometry x="1010" y="150" width="590" height="90" as="geometry" />
        </mxCell>
        <mxCell id="Aw8IIlcQ0DjvGx2Mt9a--30" style="edgeStyle=orthogonalEdgeStyle;rounded=0;orthogonalLoop=1;jettySize=auto;html=1;" parent="1" source="Aw8IIlcQ0DjvGx2Mt9a--20" edge="1">
          <mxGeometry relative="1" as="geometry">
            <mxPoint x="130" y="617" as="targetPoint" />
          </mxGeometry>
        </mxCell>
        <mxCell id="Aw8IIlcQ0DjvGx2Mt9a--20" value="origin/newfeature" style="rounded=0;whiteSpace=wrap;html=1;" parent="1" vertex="1">
          <mxGeometry x="620" y="602" width="110" height="30" as="geometry" />
        </mxCell>
        <mxCell id="Aw8IIlcQ0DjvGx2Mt9a--24" value="" style="endArrow=classic;html=1;rounded=0;" parent="1" edge="1">
          <mxGeometry width="50" height="50" relative="1" as="geometry">
            <mxPoint x="130" y="350" as="sourcePoint" />
            <mxPoint x="850" y="350" as="targetPoint" />
          </mxGeometry>
        </mxCell>
        <mxCell id="Aw8IIlcQ0DjvGx2Mt9a--26" value="" style="endArrow=classic;html=1;rounded=0;entryX=0.5;entryY=0;entryDx=0;entryDy=0;" parent="1" target="Aw8IIlcQ0DjvGx2Mt9a--11" edge="1">
          <mxGeometry width="50" height="50" relative="1" as="geometry">
            <mxPoint x="850" y="440" as="sourcePoint" />
            <mxPoint x="960" y="385" as="targetPoint" />
            <Array as="points">
              <mxPoint x="960" y="440" />
            </Array>
          </mxGeometry>
        </mxCell>
        <mxCell id="Aw8IIlcQ0DjvGx2Mt9a--28" value="&lt;p dir=&quot;ltr&quot; style=&quot;line-height:1.2;margin-top:0pt;margin-bottom:0pt;&quot; id=&quot;docs-internal-guid-bed31718-7fff-3e06-852f-32adb72f44e6&quot;&gt;&lt;span style=&quot;font-size: 11pt; font-family: Arial, sans-serif; color: rgb(0, 0, 0); background-color: transparent; font-weight: 700; font-style: normal; font-variant: normal; text-decoration: none; vertical-align: baseline; white-space: pre-wrap;&quot;&gt;Pull Request (PR):&lt;/span&gt;&lt;/p&gt;&lt;ol style=&quot;margin-top:0;margin-bottom:0;padding-inline-start:48px;&quot;&gt;&lt;li dir=&quot;ltr&quot; style=&quot;list-style-type: decimal; font-size: 11pt; font-family: Arial, sans-serif; color: rgb(0, 0, 0); background-color: transparent; font-weight: 400; font-style: normal; font-variant: normal; text-decoration: none; vertical-align: baseline; white-space: pre; margin-left: -6pt;&quot; aria-level=&quot;1&quot;&gt;&lt;p dir=&quot;ltr&quot; style=&quot;line-height:1.2;margin-top:0pt;margin-bottom:0pt;&quot; role=&quot;presentation&quot;&gt;&lt;span style=&quot;font-size: 11pt; font-family: Arial, sans-serif; color: rgb(0, 0, 0); background-color: transparent; font-weight: 400; font-style: normal; font-variant: normal; text-decoration: none; vertical-align: baseline; white-space: pre-wrap;&quot;&gt;Create PR on GitHub.&lt;/span&gt;&lt;/p&gt;&lt;/li&gt;&lt;li dir=&quot;ltr&quot; style=&quot;list-style-type: decimal; font-size: 11pt; font-family: Arial, sans-serif; color: rgb(0, 0, 0); background-color: transparent; font-weight: 400; font-style: normal; font-variant: normal; text-decoration: none; vertical-align: baseline; white-space: pre; margin-left: -6pt;&quot; aria-level=&quot;1&quot;&gt;&lt;p dir=&quot;ltr&quot; style=&quot;line-height:1.2;margin-top:0pt;margin-bottom:0pt;&quot; role=&quot;presentation&quot;&gt;&lt;span style=&quot;font-size: 11pt; font-family: Arial, sans-serif; color: rgb(0, 0, 0); background-color: transparent; font-weight: 400; font-style: normal; font-variant: normal; text-decoration: none; vertical-align: baseline; white-space: pre-wrap;&quot;&gt;Details:&lt;/span&gt;&lt;/p&gt;&lt;/li&gt;&lt;/ol&gt;&lt;ul style=&quot;margin-top:0;margin-bottom:0;padding-inline-start:48px;&quot;&gt;&lt;li dir=&quot;ltr&quot; style=&quot;list-style-type: circle; font-size: 11pt; font-family: Arial, sans-serif; color: rgb(0, 0, 0); background-color: transparent; font-weight: 400; font-style: normal; font-variant: normal; text-decoration: none; vertical-align: baseline; white-space: pre; margin-left: 24pt;&quot; aria-level=&quot;2&quot;&gt;&lt;p dir=&quot;ltr&quot; style=&quot;line-height:1.2;margin-top:0pt;margin-bottom:0pt;&quot; role=&quot;presentation&quot;&gt;&lt;span style=&quot;font-size: 11pt; font-family: Arial, sans-serif; color: rgb(0, 0, 0); background-color: transparent; font-weight: 400; font-style: normal; font-variant: normal; text-decoration: none; vertical-align: baseline; white-space: pre-wrap;&quot;&gt;Base repo: Original repo.&lt;/span&gt;&lt;/p&gt;&lt;/li&gt;&lt;li dir=&quot;ltr&quot; style=&quot;list-style-type: circle; font-size: 11pt; font-family: Arial, sans-serif; color: rgb(0, 0, 0); background-color: transparent; font-weight: 400; font-style: normal; font-variant: normal; text-decoration: none; vertical-align: baseline; white-space: pre; margin-left: 24pt;&quot; aria-level=&quot;2&quot;&gt;&lt;p dir=&quot;ltr&quot; style=&quot;line-height:1.2;margin-top:0pt;margin-bottom:0pt;&quot; role=&quot;presentation&quot;&gt;&lt;span style=&quot;font-size: 11pt; font-family: Arial, sans-serif; color: rgb(0, 0, 0); background-color: transparent; font-weight: 400; font-style: normal; font-variant: normal; text-decoration: none; vertical-align: baseline; white-space: pre-wrap;&quot;&gt;Base branch: main.&lt;/span&gt;&lt;/p&gt;&lt;/li&gt;&lt;li dir=&quot;ltr&quot; style=&quot;list-style-type: circle; font-size: 11pt; font-family: Arial, sans-serif; color: rgb(0, 0, 0); background-color: transparent; font-weight: 400; font-style: normal; font-variant: normal; text-decoration: none; vertical-align: baseline; white-space: pre; margin-left: 24pt;&quot; aria-level=&quot;2&quot;&gt;&lt;p dir=&quot;ltr&quot; style=&quot;line-height:1.2;margin-top:0pt;margin-bottom:0pt;&quot; role=&quot;presentation&quot;&gt;&lt;span style=&quot;font-size: 11pt; font-family: Arial, sans-serif; color: rgb(0, 0, 0); background-color: transparent; font-weight: 400; font-style: normal; font-variant: normal; text-decoration: none; vertical-align: baseline; white-space: pre-wrap;&quot;&gt;Head repo: Your fork.&lt;/span&gt;&lt;/p&gt;&lt;/li&gt;&lt;li dir=&quot;ltr&quot; style=&quot;list-style-type: circle; font-size: 11pt; font-family: Arial, sans-serif; color: rgb(0, 0, 0); background-color: transparent; font-weight: 400; font-style: normal; font-variant: normal; text-decoration: none; vertical-align: baseline; white-space: pre; margin-left: 24pt;&quot; aria-level=&quot;2&quot;&gt;&lt;p dir=&quot;ltr&quot; style=&quot;line-height:1.2;margin-top:0pt;margin-bottom:0pt;&quot; role=&quot;presentation&quot;&gt;&lt;span style=&quot;font-size: 11pt; font-family: Arial, sans-serif; color: rgb(0, 0, 0); background-color: transparent; font-weight: 400; font-style: normal; font-variant: normal; text-decoration: none; vertical-align: baseline; white-space: pre-wrap;&quot;&gt;Head branch: Your feature branch.&lt;/span&gt;&lt;/p&gt;&lt;/li&gt;&lt;li dir=&quot;ltr&quot; style=&quot;list-style-type: circle; font-size: 11pt; font-family: Arial, sans-serif; color: rgb(0, 0, 0); background-color: transparent; font-weight: 400; font-style: normal; font-variant: normal; text-decoration: none; vertical-align: baseline; white-space: pre; margin-left: 24pt;&quot; aria-level=&quot;2&quot;&gt;&lt;p dir=&quot;ltr&quot; style=&quot;line-height:1.2;margin-top:0pt;margin-bottom:0pt;&quot; role=&quot;presentation&quot;&gt;&lt;span style=&quot;font-size: 11pt; font-family: Arial, sans-serif; color: rgb(0, 0, 0); background-color: transparent; font-weight: 400; font-style: normal; font-variant: normal; text-decoration: none; vertical-align: baseline; white-space: pre-wrap;&quot;&gt;Title: Concise.&lt;/span&gt;&lt;/p&gt;&lt;/li&gt;&lt;li dir=&quot;ltr&quot; style=&quot;list-style-type: circle; font-size: 11pt; font-family: Arial, sans-serif; color: rgb(0, 0, 0); background-color: transparent; font-weight: 400; font-style: normal; font-variant: normal; text-decoration: none; vertical-align: baseline; white-space: pre; margin-left: 24pt;&quot; aria-level=&quot;2&quot;&gt;&lt;p dir=&quot;ltr&quot; style=&quot;line-height:1.2;margin-top:0pt;margin-bottom:0pt;&quot; role=&quot;presentation&quot;&gt;&lt;span style=&quot;font-size: 11pt; font-family: Arial, sans-serif; color: rgb(0, 0, 0); background-color: transparent; font-weight: 400; font-style: normal; font-variant: normal; text-decoration: none; vertical-align: baseline; white-space: pre-wrap;&quot;&gt;Description (Crucial): Detailed explanation (motivation, implementation, testing, etc.).&lt;/span&gt;&lt;/p&gt;&lt;/li&gt;&lt;li dir=&quot;ltr&quot; style=&quot;list-style-type: circle; font-size: 11pt; font-family: Arial, sans-serif; color: rgb(0, 0, 0); background-color: transparent; font-weight: 400; font-style: normal; font-variant: normal; text-decoration: none; vertical-align: baseline; white-space: pre; margin-left: 24pt;&quot; aria-level=&quot;2&quot;&gt;&lt;p dir=&quot;ltr&quot; style=&quot;line-height:1.2;margin-top:0pt;margin-bottom:0pt;&quot; role=&quot;presentation&quot;&gt;&lt;span style=&quot;font-size: 11pt; font-family: Arial, sans-serif; color: rgb(0, 0, 0); background-color: transparent; font-weight: 400; font-style: normal; font-variant: normal; text-decoration: none; vertical-align: baseline; white-space: pre-wrap;&quot;&gt;Reviewers: Mention if known.&lt;/span&gt;&lt;/p&gt;&lt;/li&gt;&lt;/ul&gt;" style="text;whiteSpace=wrap;html=1;" parent="1" vertex="1">
          <mxGeometry x="190" y="380" width="560" height="220" as="geometry" />
        </mxCell>
        <mxCell id="Aw8IIlcQ0DjvGx2Mt9a--31" value="PullRequest" style="text;html=1;align=center;verticalAlign=middle;resizable=0;points=[];autosize=1;strokeColor=none;fillColor=none;" parent="1" vertex="1">
          <mxGeometry x="130" y="590" width="90" height="30" as="geometry" />
        </mxCell>
        <mxCell id="Aw8IIlcQ0DjvGx2Mt9a--44" value="ATMT-local-repo" style="whiteSpace=wrap;html=1;" parent="1" vertex="1">
          <mxGeometry x="805" y="170" width="200" height="30" as="geometry" />
        </mxCell>
        <mxCell id="Aw8IIlcQ0DjvGx2Mt9a--47" style="edgeStyle=orthogonalEdgeStyle;rounded=0;orthogonalLoop=1;jettySize=auto;html=1;entryX=0;entryY=0.5;entryDx=0;entryDy=0;" parent="1" source="Aw8IIlcQ0DjvGx2Mt9a--46" target="Aw8IIlcQ0DjvGx2Mt9a--9" edge="1">
          <mxGeometry relative="1" as="geometry" />
        </mxCell>
        <mxCell id="Aw8IIlcQ0DjvGx2Mt9a--46" value="origin/main" style="rounded=0;whiteSpace=wrap;html=1;" parent="1" vertex="1">
          <mxGeometry x="540" y="240" width="80" height="30" as="geometry" />
        </mxCell>
        <mxCell id="Aw8IIlcQ0DjvGx2Mt9a--48" value="&lt;p dir=&quot;ltr&quot; style=&quot;line-height:1.2;margin-top:0pt;margin-bottom:0pt;&quot; id=&quot;docs-internal-guid-dfb33cbb-7fff-46f7-d8ff-5676d5939194&quot;&gt;&lt;span style=&quot;font-size: 11pt; font-family: Arial, sans-serif; color: rgb(0, 0, 0); background-color: transparent; font-weight: 700; font-style: normal; font-variant: normal; text-decoration: none; vertical-align: baseline; white-space: pre-wrap;&quot;&gt; Review &amp;amp; Merge:&lt;/span&gt;&lt;/p&gt;&lt;ol style=&quot;margin-top:0;margin-bottom:0;padding-inline-start:48px;&quot;&gt;&lt;li dir=&quot;ltr&quot; style=&quot;list-style-type: decimal; font-size: 11pt; font-family: Arial, sans-serif; color: rgb(0, 0, 0); background-color: transparent; font-weight: 400; font-style: normal; font-variant: normal; text-decoration: none; vertical-align: baseline; white-space: pre; margin-left: -6pt;&quot; aria-level=&quot;1&quot;&gt;&lt;p dir=&quot;ltr&quot; style=&quot;line-height:1.2;margin-top:0pt;margin-bottom:0pt;&quot; role=&quot;presentation&quot;&gt;&lt;span style=&quot;font-size: 11pt; font-family: Arial, sans-serif; color: rgb(0, 0, 0); background-color: transparent; font-weight: 400; font-style: normal; font-variant: normal; text-decoration: none; vertical-align: baseline; white-space: pre-wrap;&quot;&gt;Address feedback (push changes to your branch).&lt;/span&gt;&lt;/p&gt;&lt;/li&gt;&lt;li dir=&quot;ltr&quot; style=&quot;list-style-type: decimal; font-size: 11pt; font-family: Arial, sans-serif; color: rgb(0, 0, 0); background-color: transparent; font-weight: 400; font-style: normal; font-variant: normal; text-decoration: none; vertical-align: baseline; white-space: pre; margin-left: -6pt;&quot; aria-level=&quot;1&quot;&gt;&lt;p dir=&quot;ltr&quot; style=&quot;line-height:1.2;margin-top:0pt;margin-bottom:0pt;&quot; role=&quot;presentation&quot;&gt;&lt;span style=&quot;font-size: 11pt; font-family: Arial, sans-serif; color: rgb(0, 0, 0); background-color: transparent; font-weight: 400; font-style: normal; font-variant: normal; text-decoration: none; vertical-align: baseline; white-space: pre-wrap;&quot;&gt;Maintainer merges.&lt;/span&gt;&lt;/p&gt;&lt;/li&gt;&lt;/ol&gt;" style="text;whiteSpace=wrap;html=1;" parent="1" vertex="1">
          <mxGeometry x="140" y="640" width="400" height="80" as="geometry" />
        </mxCell>
        <mxCell id="Aw8IIlcQ0DjvGx2Mt9a--49" value="&lt;p dir=&quot;ltr&quot; style=&quot;line-height:1.2;margin-top:0pt;margin-bottom:0pt;&quot; id=&quot;docs-internal-guid-4b643c1b-7fff-9035-d7b4-1b5137d75ea9&quot;&gt;&lt;span style=&quot;font-size: 11pt; font-family: Arial, sans-serif; color: rgb(0, 0, 0); background-color: transparent; font-weight: 700; font-style: normal; font-variant: normal; text-decoration: none; vertical-align: baseline; white-space: pre-wrap;&quot;&gt;Cleanup (Recommended):&lt;/span&gt;&lt;/p&gt;&lt;ol style=&quot;margin-top:0;margin-bottom:0;padding-inline-start:48px;&quot;&gt;&lt;li dir=&quot;ltr&quot; style=&quot;list-style-type: decimal; font-size: 11pt; font-family: Arial, sans-serif; color: rgb(0, 0, 0); background-color: transparent; font-weight: 400; font-style: normal; font-variant: normal; text-decoration: none; vertical-align: baseline; white-space: pre; margin-left: -6pt;&quot; aria-level=&quot;1&quot;&gt;&lt;p dir=&quot;ltr&quot; style=&quot;line-height:1.2;margin-top:0pt;margin-bottom:0pt;&quot; role=&quot;presentation&quot;&gt;&lt;span style=&quot;font-size: 11pt; font-family: Arial, sans-serif; color: rgb(0, 0, 0); background-color: transparent; font-weight: 400; font-style: normal; font-variant: normal; text-decoration: none; vertical-align: baseline; white-space: pre-wrap;&quot;&gt;Update local develop: git checkout main; git fetch upstream; git merge upstream/develop; git push origin main&lt;/span&gt;&lt;/p&gt;&lt;/li&gt;&lt;li dir=&quot;ltr&quot; style=&quot;list-style-type: decimal; font-size: 11pt; font-family: Arial, sans-serif; color: rgb(0, 0, 0); background-color: transparent; font-weight: 400; font-style: normal; font-variant: normal; text-decoration: none; vertical-align: baseline; white-space: pre; margin-left: -6pt;&quot; aria-level=&quot;1&quot;&gt;&lt;p dir=&quot;ltr&quot; style=&quot;line-height:1.2;margin-top:0pt;margin-bottom:0pt;&quot; role=&quot;presentation&quot;&gt;&lt;span style=&quot;font-size: 11pt; font-family: Arial, sans-serif; color: rgb(0, 0, 0); background-color: transparent; font-weight: 400; font-style: normal; font-variant: normal; text-decoration: none; vertical-align: baseline; white-space: pre-wrap;&quot;&gt;Delete local branch: git branch -d newfeature&lt;/span&gt;&lt;/p&gt;&lt;/li&gt;&lt;li dir=&quot;ltr&quot; style=&quot;list-style-type: decimal; font-size: 11pt; font-family: Arial, sans-serif; color: rgb(0, 0, 0); background-color: transparent; font-weight: 400; font-style: normal; font-variant: normal; text-decoration: none; vertical-align: baseline; white-space: pre; margin-left: -6pt;&quot; aria-level=&quot;1&quot;&gt;&lt;p dir=&quot;ltr&quot; style=&quot;line-height:1.2;margin-top:0pt;margin-bottom:0pt;&quot; role=&quot;presentation&quot;&gt;&lt;span style=&quot;font-size: 11pt; font-family: Arial, sans-serif; color: rgb(0, 0, 0); background-color: transparent; font-weight: 400; font-style: normal; font-variant: normal; text-decoration: none; vertical-align: baseline; white-space: pre-wrap;&quot;&gt;Delete remote branch: git push origin --delete newfeature&lt;/span&gt;&lt;/p&gt;&lt;/li&gt;&lt;/ol&gt;" style="text;whiteSpace=wrap;html=1;" parent="1" vertex="1">
          <mxGeometry x="930" y="640" width="560" height="110" as="geometry" />
        </mxCell>
      </root>
    </mxGraphModel>
  </diagram>
</mxfile>
